<svg width="32" height="32" viewBox="0 0 32 32" fill="none" xmlns="http://www.w3.org/2000/svg">
<path d="M26.6027 7.56274C24.064 5.52141 20.048 5.17608 19.8773 5.16141C19.6093 5.13874 19.3547 5.29074 19.2453 5.53608C19.2373 5.55208 19.1493 5.75341 19.052 6.06674C20.7307 6.34941 22.7933 6.92007 24.66 8.07874C24.9587 8.26407 25.0507 8.65741 24.8653 8.95741C24.7453 9.15207 24.536 9.25874 24.3227 9.25874C24.208 9.25874 24.092 9.22808 23.9867 9.16274C20.7787 7.17341 16.7707 7.07341 16 7.07341C15.2293 7.07341 11.22 7.17341 8.01466 9.16274C7.71466 9.34941 7.32266 9.25607 7.136 8.95741C6.94933 8.65741 7.04266 8.26541 7.34133 8.07874C9.20799 6.92141 11.2693 6.34941 12.9493 6.06674C12.8507 5.75208 12.7627 5.55208 12.756 5.53608C12.6453 5.29074 12.392 5.13608 12.1227 5.16274C11.9533 5.17608 7.93733 5.52141 5.36399 7.59207C4.01999 8.83341 1.33333 16.0974 1.33333 22.3774C1.33333 22.4881 1.36266 22.5974 1.41733 22.6934C3.27199 25.9507 8.33066 26.8041 9.484 26.8414C9.49066 26.8414 9.49733 26.8414 9.50399 26.8414C9.70799 26.8414 9.89999 26.7441 10.02 26.5787L11.1867 24.9761C8.04133 24.1627 6.43466 22.7827 6.34133 22.7014C6.07733 22.4681 6.052 22.0654 6.28533 21.8014C6.51866 21.5374 6.92 21.5121 7.184 21.7441C7.22266 21.7787 10.1813 24.2894 16 24.2894C21.8293 24.2894 24.788 21.7681 24.8173 21.7427C25.0813 21.5134 25.484 21.5374 25.716 21.8027C25.948 22.0667 25.9227 22.4681 25.66 22.7001C25.5667 22.7827 23.96 24.1614 20.8147 24.9747L21.9813 26.5774C22.1013 26.7427 22.2933 26.8401 22.4973 26.8401C22.504 26.8401 22.5107 26.8401 22.5173 26.8401C23.6707 26.8041 28.7293 25.9507 30.584 22.6921C30.6373 22.5961 30.6667 22.4881 30.6667 22.3774C30.6667 16.0974 27.98 8.83341 26.6027 7.56274ZM11.8547 19.8267C10.6227 19.8267 9.62266 18.6841 9.62266 17.2761C9.62266 15.8681 10.6213 14.7254 11.8547 14.7254C13.088 14.7254 14.0867 15.8681 14.0867 17.2761C14.0867 18.6841 13.088 19.8267 11.8547 19.8267ZM20.1453 19.8267C18.9133 19.8267 17.9133 18.6841 17.9133 17.2761C17.9133 15.8681 18.912 14.7254 20.1453 14.7254C21.3773 14.7254 22.3773 15.8681 22.3773 17.2761C22.3773 18.6841 21.3773 19.8267 20.1453 19.8267Z" fill="#F3F3F3"/>
</svg>
