<svg width="124" height="124" viewBox="0 0 124 124" fill="none" xmlns="http://www.w3.org/2000/svg">
<path d="M66.2625 61.9997C66.2625 52.0099 74.1598 43.9189 83.8938 43.9189C93.6355 43.9189 101.525 52.0022 101.525 61.9997C101.525 71.9894 93.6355 80.0804 83.8938 80.0804C74.1675 80.0804 66.2625 71.9972 66.2625 61.9997Z" fill="#1ABCFE"/>
<path d="M31 98.1695C31 88.1798 38.8973 80.0811 48.6313 80.0811H66.2625V98.1695C66.2625 108.152 58.3653 116.25 48.6313 116.25C38.8973 116.25 31 108.152 31 98.1695Z" fill="#0ACF83"/>
<path d="M66.2625 7.75V43.9192H83.8938C93.6355 43.9192 101.525 35.8205 101.525 25.8307C101.525 15.8487 93.6355 7.75 83.8938 7.75H66.2625Z" fill="#FF7262"/>
<path d="M31 25.8307C31 35.8205 38.8973 43.9192 48.6313 43.9192H66.2625V7.75H48.6313C38.8973 7.75 31 15.8487 31 25.8307Z" fill="#F24E1E"/>
<path d="M31 61.9997C31 71.9894 38.8973 80.0804 48.6313 80.0804H66.2625V43.9189H48.6313C38.8973 43.9189 31 52.0022 31 61.9997Z" fill="#A259FF"/>
</svg>
