<svg width="32" height="32" viewBox="0 0 32 32" fill="none" xmlns="http://www.w3.org/2000/svg">
<path d="M16 2.6665C8.63541 2.6665 2.66666 8.63525 2.66666 15.9998C2.66666 23.3644 8.63541 29.3332 16 29.3332C23.3646 29.3332 29.3333 23.3644 29.3333 15.9998C29.3333 8.63525 23.3646 2.6665 16 2.6665ZM16 5.33317C21.8802 5.33317 26.6667 10.1196 26.6667 15.9998C26.6667 16.6248 26.6042 17.2394 26.5 17.8332C26.1719 17.7603 25.6875 17.6717 25.125 17.6665C24.7083 17.6613 24.1875 17.729 23.75 17.7915C23.901 17.328 24 16.8175 24 16.2915C24 15.0103 23.375 13.8175 22.375 12.8332C22.651 11.8071 22.9219 10.0467 22.2083 9.33317C20.0989 9.33317 18.9323 10.8384 18.875 10.9165C18.2239 10.7603 17.5521 10.6665 16.8333 10.6665C15.9114 10.6665 15.0312 10.8332 14.2083 11.0832L14.4583 10.8748C14.4583 10.8748 13.2864 9.24984 11.125 9.24984C10.3698 10.0103 10.7135 11.9373 11 12.9165C9.97916 13.8905 9.33332 15.0415 9.33332 16.2915C9.33332 16.729 9.43749 17.1457 9.54166 17.5415C9.17186 17.4998 7.83853 17.3748 7.29166 17.3748C6.80728 17.3748 6.05728 17.4894 5.45832 17.6248C5.37499 17.0936 5.33332 16.5519 5.33332 15.9998C5.33332 10.1196 10.1198 5.33317 16 5.33317ZM7.29166 17.7082C7.8177 17.7082 9.41666 17.8957 9.62499 17.9165C9.65103 17.9894 9.67707 18.0571 9.70832 18.1248C9.13541 18.0728 8.02603 17.9946 7.29166 18.0832C6.80207 18.1405 6.17707 18.3175 5.62499 18.4582C5.58332 18.2915 5.53124 18.13 5.49999 17.9582C6.08332 17.8332 6.84895 17.7082 7.29166 17.7082ZM25.125 17.9998C25.6562 18.005 26.1406 18.0936 26.4583 18.1665C26.4427 18.255 26.3958 18.328 26.375 18.4165C26.0364 18.3384 25.4792 18.2238 24.8333 18.2082C24.5208 18.203 24.0208 18.2186 23.5833 18.2498C23.6042 18.2082 23.6094 18.1665 23.625 18.1248C24.0781 18.0623 24.6562 17.9946 25.125 17.9998ZM8.12499 18.3748C8.87499 18.38 9.57811 18.4321 9.87499 18.4582C10.5729 19.7603 11.9844 20.7238 14.1667 21.1248C13.6302 21.4217 13.151 21.8384 12.7917 22.3332C12.4792 22.3592 12.151 22.3748 11.8333 22.3748C10.9062 22.3748 10.3281 21.5467 9.83332 20.8332C9.33332 20.1196 8.71874 20.0415 8.37499 19.9998C8.02603 19.9582 7.90624 20.1561 8.08332 20.2915C9.09895 21.0728 9.46353 21.9998 9.87499 22.8332C10.2448 23.5832 11.0208 23.9998 11.875 23.9998H12.0417C12.0156 24.1457 12 24.2811 12 24.4165V25.8748C8.92186 24.63 6.57811 21.9998 5.70832 18.7498C6.2552 18.6144 6.86978 18.4738 7.33332 18.4165C7.54686 18.3905 7.8177 18.3696 8.12499 18.3748ZM24.8333 18.5415C25.4323 18.5571 25.9635 18.6717 26.2917 18.7498C25.5573 21.5103 23.7448 23.8071 21.3333 25.2082V24.4165C21.3333 23.2811 20.4375 21.8228 19.1667 21.1248C21.276 20.7394 22.651 19.8175 23.375 18.5832C23.8802 18.5467 24.4739 18.5311 24.8333 18.5415ZM16.6667 23.9998C17.0312 23.9998 17.3333 24.3019 17.3333 24.6665V26.5832C16.8958 26.6405 16.4531 26.6665 16 26.6665V24.6665C16 24.3019 16.3021 23.9998 16.6667 23.9998ZM14 25.3332C14.3646 25.3332 14.6667 25.6353 14.6667 25.9998V26.5832C14.2187 26.5259 13.7656 26.4425 13.3333 26.3332V25.9998C13.3333 25.6353 13.6354 25.3332 14 25.3332ZM19.3333 25.3332C19.6562 25.3332 19.9375 25.5675 20 25.8748C19.5677 26.0519 19.125 26.2134 18.6667 26.3332V25.9998C18.6667 25.6353 18.9687 25.3332 19.3333 25.3332Z" fill="#F3F3F3"/>
</svg>
