<svg width="124" height="124" viewBox="0 0 124 124" fill="none" xmlns="http://www.w3.org/2000/svg">
<g clip-path="url(#clip0_92_213)">
<path d="M97.3495 124H26.6505C11.9302 124 0 112.07 0 97.3495V26.6505C0 11.9302 11.9302 0 26.6505 0H97.3519C112.07 0 124 11.9302 124 26.6505V97.3519C124 112.07 112.07 124 97.3495 124Z" fill="#6D4C13"/>
<path d="M73.16 93.0007H65.4338L58.8523 71.4437H39.0123L32.7169 93.0007H25.2769L44.9261 26.2314H52.8431L73.16 93.0007ZM57.1354 64.3853L48.8369 37.2961L40.8246 64.3853H57.1354Z" fill="#FFBD2E"/>
<path d="M89.373 29.188C89.373 30.2682 88.9915 31.1911 88.2284 31.9542C87.4653 32.7148 86.5591 33.0964 85.5099 33.0964C84.4607 33.0964 83.5378 32.7005 82.7438 31.9041C81.9473 31.11 81.5515 30.2038 81.5515 29.1856C81.5515 28.1674 81.9473 27.2612 82.7438 26.4648C83.5378 25.6707 84.4607 25.2725 85.5099 25.2725C86.5591 25.2725 87.4653 25.654 88.2284 26.4171C88.9938 27.1849 89.373 28.1078 89.373 29.188ZM88.8031 93.0003H81.9354V45.2126H88.8031V93.0003Z" fill="#FFBD2E"/>
</g>
<defs>
<clipPath id="clip0_92_213">
<rect width="124" height="124" fill="white"/>
</clipPath>
</defs>
</svg>
