<svg width="32" height="32" viewBox="0 0 32 32" fill="none" xmlns="http://www.w3.org/2000/svg">
<path d="M15.8 3C8.7312 3 3 8.7312 3 15.8C3 22.8688 8.7312 28.6 15.8 28.6C22.8688 28.6 28.6 22.8688 28.6 15.8C28.6 8.7312 22.8688 3 15.8 3ZM10.9957 8.7632C11.8939 8.7632 12.4923 9.3616 12.4923 10.1595C12.4923 10.9573 11.8939 11.5557 10.8965 11.5557C9.9984 11.5568 9.4 10.9573 9.4 10.1595C9.4 9.3616 9.9984 8.7632 10.9957 8.7632ZM12.6 21.1333H9.4V12.6H12.6V21.1333ZM23.2667 21.1333H20.2544V16.4699C20.2544 15.1803 19.4512 14.8827 19.1504 14.8827C18.8496 14.8827 17.8448 15.0811 17.8448 16.4699C17.8448 16.6683 17.8448 21.1333 17.8448 21.1333H14.7333V12.6H17.8459V13.7904C18.2469 13.096 19.0501 12.6 20.5563 12.6C22.0624 12.6 23.2667 13.7904 23.2667 16.4699V21.1333Z" fill="#F3F3F3"/>
</svg>
