<svg width="124" height="124" viewBox="0 0 124 124" fill="none" xmlns="http://www.w3.org/2000/svg">
<g clip-path="url(#clip0_92_207)">
<path d="M97.3495 124H26.6505C11.9302 124 0 112.07 0 97.3495V26.6505C0 11.9302 11.9302 0 26.6505 0H97.3519C112.07 0 124 11.9302 124 26.6505V97.3519C124 112.07 112.07 124 97.3495 124Z" fill="#393687"/>
<path d="M28.9969 92.9997H22.1292V26.2305H45.1169C51.3479 26.2305 55.9741 28.1692 58.9954 32.0489C62.0143 35.9263 63.5261 41.0151 63.5261 47.3081C63.5261 49.5353 63.4617 51.4573 63.3354 53.0789C63.2066 54.7028 62.8107 56.7369 62.1431 59.1859C61.4754 61.6325 60.5692 63.6355 59.4246 65.1951C58.28 66.7546 56.5321 68.121 54.1784 69.2966C51.8248 70.4746 49.0277 71.0612 45.7846 71.0612H28.9969V92.9997ZM28.9969 64.3843H44.9261C47.2154 64.3843 49.1541 63.9384 50.7446 63.0489C52.3328 62.1571 53.4941 61.2056 54.2261 60.1874C54.9558 59.1692 55.5281 57.7074 55.9431 55.7997C56.3556 53.8896 56.5797 52.4612 56.6107 51.505C56.6417 50.5535 56.6584 49.1848 56.6584 47.4035C56.6584 37.7386 52.6189 32.905 44.5446 32.905H28.9969V64.3843Z" fill="#89D3FF"/>
<path d="M70.2985 80.8854L76.9754 80.5993C77.2282 82.9529 78.4062 84.7819 80.5046 86.0839C82.6031 87.3883 85.0187 88.0393 87.7538 88.0393C90.489 88.0393 92.8569 87.4193 94.86 86.1793C96.8631 84.9393 97.8646 83.1603 97.8646 80.8401C97.8646 78.5199 97.0062 76.6742 95.2892 75.3078C93.5723 73.9414 91.4738 72.8612 88.9938 72.0647C86.5138 71.2706 84.0195 70.4289 81.5062 69.537C78.9928 68.6476 76.7846 67.2478 74.8769 65.3401C72.5233 63.1129 71.3477 60.3968 71.3477 57.1847C71.3477 53.9726 72.6354 50.9823 75.2108 48.2162C77.7862 45.45 81.9664 44.0693 87.7538 44.0693C89.7903 44.0693 91.6956 44.3078 93.4769 44.7847C95.2558 45.2616 96.5292 45.7243 97.2923 46.1678L98.4369 46.8331L96.2431 52.8447C94.2066 51.2566 91.5358 50.4601 88.2308 50.4601C84.9233 50.4601 82.46 51.0801 80.8385 52.3201C79.2169 53.5601 78.4062 55.1339 78.4062 57.0393C78.4062 59.1377 79.422 60.7926 81.4585 61.9993C83.4925 63.2083 85.7818 64.2265 88.3262 65.0516C90.8682 65.879 93.3958 66.7995 95.9092 67.8177C98.4202 68.836 100.55 70.4265 102.3 72.587C104.05 74.7474 104.923 77.609 104.923 81.1716C104.923 84.7342 103.492 87.8342 100.631 90.4716C97.7692 93.1089 93.5866 94.43 88.0877 94.43C82.5864 94.43 78.2774 93.1256 75.1631 90.5193C72.0464 87.9129 70.4248 84.7008 70.2985 80.8854Z" fill="#89D3FF"/>
</g>
<defs>
<clipPath id="clip0_92_207">
<rect width="124" height="124" fill="white"/>
</clipPath>
</defs>
</svg>
