<svg width="32" height="32" viewBox="0 0 32 32" fill="none" xmlns="http://www.w3.org/2000/svg">
<path d="M25.436 6.5705C22.9213 4.0545 19.5773 2.66784 16.0147 2.6665C8.67333 2.6665 2.69866 8.6385 2.696 15.9798C2.69466 18.3265 3.308 20.6172 4.47333 22.6358L2.66666 29.3332L9.644 27.6838C11.5893 28.7452 13.7787 29.3038 16.008 29.3052H16.0133C23.3533 29.3052 29.328 23.3318 29.332 15.9918C29.3347 12.4332 27.9507 9.08784 25.436 6.5705ZM22.5307 20.7385C22.2533 21.5158 20.8947 22.2652 20.284 22.3198C19.6733 22.3758 19.1013 22.5958 16.2907 21.4878C12.908 20.1545 10.772 16.6865 10.6067 16.4652C10.44 16.2425 9.248 14.6612 9.248 13.0238C9.248 11.3865 10.108 10.5812 10.4133 10.2492C10.7187 9.91584 11.0787 9.83317 11.3013 9.83317C11.5227 9.83317 11.7453 9.83317 11.9387 9.84117C12.176 9.8505 12.4387 9.8625 12.688 10.4158C12.984 11.0745 13.6307 12.7198 13.7133 12.8865C13.796 13.0532 13.852 13.2478 13.7413 13.4692C13.6307 13.6905 13.5747 13.8292 13.4093 14.0238C13.2427 14.2185 13.06 14.4572 12.9107 14.6065C12.744 14.7718 12.5707 14.9532 12.764 15.2852C12.9587 15.6185 13.6253 16.7078 14.6147 17.5892C15.8867 18.7225 16.9573 19.0732 17.2907 19.2412C17.624 19.4078 17.8173 19.3798 18.012 19.1572C18.2067 18.9358 18.844 18.1865 19.0653 17.8532C19.2867 17.5198 19.5093 17.5758 19.8147 17.6865C20.12 17.7972 21.756 18.6025 22.088 18.7692C22.4213 18.9358 22.6427 19.0185 22.7253 19.1572C22.808 19.2945 22.808 19.9612 22.5307 20.7385Z" fill="#F3F3F3"/>
</svg>
